<svg width="64" height="64" viewBox="0 0 64 64" fill="none" xmlns="http://www.w3.org/2000/svg">
<path d="M64 20.9653L38.1021 42.4826L36.9214 43.4646C34.0693 45.8371 29.9307 45.8371 27.0786 43.4646L25.8979 42.4826L0 20.9653L9.93103 13.9253L21.8041 5.51707L27.0786 1.77638C29.9307 -0.596032 34.0693 -0.596032 36.9214 1.77638L42.1959 5.51707L54.069 13.9253L64 20.9653Z" fill="#1F8386"/>
<path d="M54.0686 51.8617V6.62034C54.0313 5.9792 53.4853 5.48729 52.8438 5.51689H11.1555C10.5139 5.48729 9.96793 5.9792 9.93066 6.62034V51.8617H54.0686Z" fill="#E2E2E2"/>
<path d="M33.3662 36.4028C30.8927 36.3913 28.4354 36.0038 26.0784 35.2536C22.3125 33.9937 19.5154 30.8055 18.7562 26.9077C17.9254 22.9061 19.4394 18.6749 22.9092 15.2995C23.2815 14.9369 23.6684 14.5895 24.0698 14.2575C27.6225 11.2832 32.4122 10.2495 36.8754 11.494C41.1962 12.8731 44.1818 16.8218 44.3311 21.355C44.4929 23.9643 43.6424 26.5356 41.9566 28.5339C40.6564 30.1717 38.5498 30.9453 36.4986 30.5382C35.6598 30.3641 34.9279 29.8561 34.4715 29.1311C34.062 28.4268 33.9569 27.5862 34.1806 26.8028C35.1456 23.1552 36.1267 17.6121 36.1364 17.5559C36.2049 17.1676 36.4754 16.8453 36.846 16.7105C37.2165 16.5757 37.6308 16.6489 37.9328 16.9024C38.2349 17.1559 38.3787 17.5513 38.3102 17.9396C38.2692 18.1702 37.3032 23.6303 36.3145 27.3669C36.2439 27.574 36.2616 27.8009 36.3635 27.9945C36.516 28.2057 36.7463 28.3475 37.0035 28.3889C38.2591 28.5985 39.5274 28.0947 40.2971 27.0808C41.6063 25.5146 42.2622 23.5045 42.1289 21.4676C42.021 17.8593 39.6548 14.7091 36.2195 13.6C32.4696 12.5686 28.4523 13.4498 25.4784 15.9559C25.1238 16.2502 24.779 16.5583 24.4482 16.8805C22.7328 18.5491 19.9935 22.0115 20.9165 26.4584C21.5367 29.5652 23.7555 32.1112 26.7483 33.1503C31.9235 34.8011 39.3599 34.9999 43.278 30.1282C43.6629 29.6646 44.3486 29.5955 44.8183 29.973C45.2879 30.3506 45.3679 31.0351 44.9978 31.5107C42.1005 35.1138 37.6916 36.4028 33.3662 36.4028Z" fill="#4FC2C5"/>
<path d="M29.5891 30.6817C28.4227 30.7017 27.2851 30.3192 26.3677 29.5986C24.2497 27.9036 24.1915 24.9591 24.7852 22.9538C24.9852 22.2859 25.2537 21.6406 25.5864 21.028C26.4144 19.3575 27.7382 17.9836 29.3769 17.0943C31.4176 16.0355 33.9108 16.437 35.5158 18.083C36.3121 18.9557 36.9119 19.989 37.2747 21.1132C37.4669 21.6837 37.1663 22.303 36.5992 22.5049C36.0321 22.7069 35.4078 22.4171 35.196 21.8535C34.9344 21.0229 34.4996 20.2573 33.9202 19.6072C32.9845 18.6503 31.5264 18.4325 30.3519 19.0744C29.123 19.7674 28.1354 20.8197 27.5216 22.09C27.2636 22.5659 27.0552 23.0671 26.8998 23.5857C26.471 25.0362 26.5652 26.9292 27.7484 27.8767C29.042 28.9155 31.2243 28.4763 32.4521 27.4171C33.3671 26.5933 34.1533 25.6369 34.7845 24.5798C34.9888 24.2373 35.3621 24.0318 35.7608 24.0422C36.1595 24.0526 36.5215 24.2774 36.7077 24.63C36.894 24.9827 36.8754 25.4084 36.6592 25.7435C35.9116 26.9891 34.981 28.1152 33.8984 29.084C32.6918 30.102 31.1677 30.6671 29.5891 30.6817Z" fill="#4FC2C5"/>
<path d="M64 20.9653L64 61.7929C64.0012 62.4076 63.7403 62.9935 63.2828 63.4039C62.8828 63.7891 62.3483 64.0029 61.7931 63.9998H2.2069C1.65168 64.0029 1.11718 63.7891 0.717245 63.4039C0.259715 62.9935 -0.00117043 62.4076 3.95035e-06 61.7929L0 20.9653L25.8979 42.4826L27.0786 43.4646C29.9307 45.837 34.0693 45.837 36.9214 43.4646L38.1021 42.4826L64 20.9653Z" fill="#4FC2C5"/>
<path d="M63.2823 63.4038C62.8824 63.7889 62.3479 64.0027 61.7927 63.9997H2.20645C1.65123 64.0027 1.11674 63.7889 0.716797 63.4038L25.8975 42.4824L27.0782 43.4645C29.9302 45.8369 34.0689 45.8369 36.9209 43.4645L38.1016 42.4824L63.2823 63.4038Z" fill="#1F8386"/>
</svg>
