<svg width="64" height="64" viewBox="0 0 64 64" fill="none" xmlns="http://www.w3.org/2000/svg">
<g clip-path="url(#clip0_265_13282)">
<path d="M58.375 26.25H5.625C2.51837 26.25 0 23.7316 0 20.625V5.625C0 2.51837 2.51837 0 5.625 0H58.375C61.4816 0 64 2.51837 64 5.625V20.625C64 23.7316 61.4816 26.25 58.375 26.25Z" fill="#4FC2C5"/>
<path d="M58.375 0H32V26.25H58.375C61.4816 26.25 64 23.7316 64 20.625V5.625C64 2.51837 61.4816 0 58.375 0Z" fill="#1F8386"/>
<path d="M43.6953 19.6875C42.8324 19.6875 42.1328 18.9879 42.1328 18.125V8.14366C42.1328 7.45979 42.5776 6.85541 43.2303 6.65191C43.8833 6.44841 44.5924 6.69304 44.9811 7.25579L49.0958 13.2143L49.0468 8.14004C49.0384 7.27716 49.7312 6.57091 50.5941 6.56254C51.4619 6.55666 52.1632 7.24691 52.1716 8.10991L52.2649 17.7729C52.2651 17.7779 52.2651 17.783 52.2651 17.788C52.2651 18.6014 51.7959 19.2735 51.0698 19.5003C50.3554 19.7232 49.6056 19.4504 49.1588 18.805L45.2577 13.1559V18.125C45.2578 18.9879 44.5582 19.6875 43.6953 19.6875Z" fill="#DFDEF5"/>
<path d="M16.8205 6.5625C15.9576 6.5625 15.258 7.26213 15.258 8.125V16.1174C15.258 16.2911 15.1699 16.4522 15.0335 16.528C14.7955 16.6604 14.3919 16.2989 14.3879 16.2951C14.1051 16.0127 13.7291 15.852 13.2979 15.852C12.4349 15.852 11.7354 16.5515 11.7354 17.4145C11.7354 17.8442 11.911 18.2354 12.1917 18.5179C12.7179 19.0448 13.7342 19.6938 14.9212 19.6938C15.4397 19.6938 15.9915 19.5705 16.5502 19.2604C17.6807 18.6329 18.3831 17.4286 18.3831 16.1175V8.125C18.383 7.26213 17.6834 6.5625 16.8205 6.5625Z" fill="#FFF5F5"/>
<path d="M38.0703 19.6875C37.2074 19.6875 36.5078 18.9879 36.5078 18.125V8.125C36.5078 7.26213 37.2074 6.5625 38.0703 6.5625C38.9332 6.5625 39.6328 7.26213 39.6328 8.125V18.125C39.6328 18.9879 38.9332 19.6875 38.0703 19.6875Z" fill="#DFDEF5"/>
<path d="M27.4453 19.6875C23.8267 19.6875 20.8828 16.7436 20.8828 13.125C20.8828 9.50638 23.8267 6.5625 27.4453 6.5625C31.0638 6.5625 34.0078 9.50638 34.0078 13.125C34.0078 16.7436 31.0638 19.6875 27.4453 19.6875ZM27.4453 9.6875C25.5498 9.6875 24.0078 11.2295 24.0078 13.125C24.0078 15.0205 25.5498 16.5625 27.4453 16.5625C29.3407 16.5625 30.8828 15.0205 30.8828 13.125C30.8828 11.2295 29.3407 9.6875 27.4453 9.6875Z" fill="#FFF5F5"/>
<path d="M34.0076 13.1249C34.0076 11.2742 33.2365 9.60135 32 8.40723V17.8426C33.2364 16.6484 34.0076 14.9755 34.0076 13.1249Z" fill="#DFDEF5"/>
<path d="M28.3305 38.2993L27.7814 38.8484L25.9064 43.3751L24.0314 42.5984L23.4764 43.1534C21.416 45.2137 20.2812 47.9531 20.2812 50.8669C20.2812 53.7509 21.4545 56.5712 23.5 58.6041L28.11 63.1858C28.448 63.6777 29.0145 64.0001 29.6562 64.0001H54.6562C55.062 64.0001 55.4567 63.8684 55.7812 63.6251C59.3818 60.9246 61.5312 56.6256 61.5312 52.1251V49.6251L28.3305 38.2993Z" fill="#FFDECF"/>
<path d="M32 64.0003H54.6562C55.062 64.0003 55.4568 63.8686 55.7812 63.6253C59.3818 60.9248 61.5312 56.6258 61.5312 52.1253V49.6253L32 39.5513V64.0003Z" fill="#FFCDBE"/>
<path d="M27.7812 50.8753V38.8486L24.0312 42.5986V50.8753C24.0312 51.9108 24.8707 52.7503 25.9062 52.7503C26.9418 52.7503 27.7812 51.9108 27.7812 50.8753Z" fill="#FFCDBE"/>
<path d="M27.7812 52.75V26.9688C27.7812 24.6389 29.67 22.75 32 22.75C34.33 22.75 36.2188 24.6388 36.2188 26.9688V52.75H27.7812Z" fill="#FFDECF"/>
<path d="M32 22.75V52.75H36.2188V26.9688C36.2188 24.6388 34.33 22.75 32 22.75Z" fill="#FFCDBE"/>
<path d="M36.2188 39.4688V52.75H44.6562V39.4688C44.6562 37.1388 42.7675 35.25 40.4375 35.25C38.1075 35.25 36.2188 37.1388 36.2188 39.4688Z" fill="#FFCDBE"/>
<path d="M44.6562 39.4688V52.75H53.0938V39.4688C53.0938 37.1388 51.205 35.25 48.875 35.25C46.545 35.25 44.6562 37.1388 44.6562 39.4688Z" fill="#FFCDBE"/>
<path d="M57.3125 37.75C54.9825 37.75 53.0938 39.6388 53.0938 41.9688V49.625H61.5312V41.9688C61.5312 39.6388 59.6425 37.75 57.3125 37.75Z" fill="#FFCDBE"/>
</g>
<defs>
<clipPath id="clip0_265_13282">
<rect width="64" height="64" fill="white"/>
</clipPath>
</defs>
</svg>
